<svg width="32" height="32" viewBox="0 0 32 32" fill="none" xmlns="http://www.w3.org/2000/svg">
<path d="M0 16C0 7.16344 7.16344 0 16 0C24.8366 0 32 7.16344 32 16C32 24.8366 24.8366 32 16 32C7.16344 32 0 24.8366 0 16Z" fill="#777777" fill-opacity="0.3"/>
<path d="M2.66699 16.0003C2.66699 8.63653 8.63653 2.66699 16.0003 2.66699C23.3641 2.66699 29.3337 8.63653 29.3337 16.0003C29.3337 23.3641 23.3641 29.3337 16.0003 29.3337C8.63653 29.3337 2.66699 23.3641 2.66699 16.0003Z" fill="#777777" fill-opacity="0.5"/>
<path d="M5.33301 15.9997C5.33301 10.1086 10.1086 5.33301 15.9997 5.33301C21.8907 5.33301 26.6663 10.1086 26.6663 15.9997C26.6663 21.8907 21.8907 26.6663 15.9997 26.6663C10.1086 26.6663 5.33301 21.8907 5.33301 15.9997Z" fill="#777777"/>
<path fill-rule="evenodd" clip-rule="evenodd" d="M19.8455 11.4881C20.4964 12.139 20.4964 13.1942 19.8455 13.8451L13.7172 19.9734C13.0664 20.6242 12.0111 20.6242 11.3602 19.9734C10.7093 19.3225 10.7093 18.2672 11.3602 17.6163L17.4885 11.4881C18.1394 10.8372 19.1946 10.8372 19.8455 11.4881Z" fill="white"/>
<path fill-rule="evenodd" clip-rule="evenodd" d="M19.8449 19.8455C19.1941 20.4964 18.1388 20.4964 17.4879 19.8455L11.3596 13.7172C10.7088 13.0664 10.7088 12.0111 11.3596 11.3602C12.0105 10.7093 13.0658 10.7093 13.7167 11.3602L19.8449 17.4885C20.4958 18.1394 20.4958 19.1946 19.8449 19.8455Z" fill="white"/>
</svg>
