<?xml version="1.0" standalone="no"?>
<!DOCTYPE svg PUBLIC "-//W3C//DTD SVG 20010904//EN"
 "http://www.w3.org/TR/2001/REC-SVG-20010904/DTD/svg10.dtd">
<svg version="1.0" xmlns="http://www.w3.org/2000/svg"
 width="25.000000pt" height="25.000000pt" viewBox="0 0 2048.000000 2048.000000"
 preserveAspectRatio="xMidYMid meet">

<g transform="translate(0.000000,2048.000000) scale(0.100000,-0.100000)"
fill="#1CAB02"  stroke="none">
<path d="M9880 20110 c-1121 -42 -2215 -270 -3245 -675 -920 -361 -1765 -849
-2545 -1469 -499 -397 -1013 -898 -1426 -1392 -1713 -2048 -2516 -4671 -2248
-7344 195 -1944 982 -3810 2247 -5323 348 -415 795 -865 1207 -1213 1059 -894
2303 -1560 3618 -1939 536 -155 1059 -260 1602 -325 651 -76 1384 -85 2055
-24 1743 158 3428 786 4850 1809 670 482 1301 1069 1829 1701 1260 1508 2039
3357 2241 5316 64 626 64 1390 0 2016 -202 1965 -982 3811 -2249 5326 -347
415 -784 854 -1206 1212 -1529 1297 -3473 2111 -5465 2288 -406 37 -890 50
-1265 36z m987 -2364 c1793 -154 3431 -914 4698 -2181 1666 -1664 2444 -3965
2139 -6324 -243 -1881 -1212 -3616 -2699 -4834 -1081 -885 -2390 -1452 -3770
-1632 -559 -73 -1186 -84 -1740 -29 -2230 220 -4234 1415 -5499 3281 -980
1447 -1420 3188 -1251 4953 228 2365 1578 4497 3625 5722 1052 630 2194 981
3440 1058 209 12 841 4 1057 -14z"/>
<path d="M11530 11183 c-1535 -1512 -2797 -2749 -2804 -2751 -6 -1 -583 586
-1281 1305 -698 719 -1272 1308 -1276 1308 -8 0 -1674 -1618 -1674 -1626 0 -6
4184 -4319 4190 -4319 8 0 7280 7161 7280 7168 0 11 -1626 1662 -1636 1662 -4
0 -1264 -1236 -2799 -2747z"/>
</g>
</svg>
