<svg width="30" height="30" viewBox="0 0 30 30" fill="none" xmlns="http://www.w3.org/2000/svg">
<path d="M0 15C0 6.71573 6.71573 0 15 0C23.2843 0 30 6.71573 30 15C30 23.2843 23.2843 30 15 30C6.71573 30 0 23.2843 0 15Z" fill="#FFA733" fill-opacity="0.3"/>
<path d="M2.5 15C2.5 8.09644 8.09644 2.5 15 2.5C21.9036 2.5 27.5 8.09644 27.5 15C27.5 21.9036 21.9036 27.5 15 27.5C8.09644 27.5 2.5 21.9036 2.5 15Z" fill="#FFA733" fill-opacity="0.5"/>
<path d="M5 15C5 9.47715 9.47715 5 15 5C20.5228 5 25 9.47715 25 15C25 20.5228 20.5228 25 15 25C9.47715 25 5 20.5228 5 15Z" fill="#FFA733"/>
<path fill-rule="evenodd" clip-rule="evenodd" d="M15 8.4375C15.8629 8.4375 16.5625 9.13706 16.5625 10V14.6593L18.0512 13.915C18.8231 13.529 19.7616 13.8419 20.1475 14.6137C20.5335 15.3856 20.2206 16.3241 19.4488 16.71L15.6988 18.585C15.2144 18.8272 14.6392 18.8013 14.1785 18.5166C13.7179 18.2319 13.4375 17.729 13.4375 17.1875V10C13.4375 9.13706 14.1371 8.4375 15 8.4375Z" fill="white"/>
</svg>
