<svg width="34" height="34" viewBox="0 0 34 34" fill="none" xmlns="http://www.w3.org/2000/svg">
<path d="M0 17C0 7.61116 7.61116 0 17 0C26.3888 0 34 7.61116 34 17C34 26.3888 26.3888 34 17 34C7.61116 34 0 26.3888 0 17Z" fill="#83CC5E" fill-opacity="0.3"/>
<path d="M2.83301 16.9997C2.83301 9.17564 9.17564 2.83301 16.9997 2.83301C24.8237 2.83301 31.1663 9.17564 31.1663 16.9997C31.1663 24.8237 24.8237 31.1663 16.9997 31.1663C9.17564 31.1663 2.83301 24.8237 2.83301 16.9997Z" fill="#83CC5E" fill-opacity="0.5"/>
<path d="M5.66699 17.0003C5.66699 10.7411 10.7411 5.66699 17.0003 5.66699C23.2596 5.66699 28.3337 10.7411 28.3337 17.0003C28.3337 23.2596 23.2596 28.3337 17.0003 28.3337C10.7411 28.3337 5.66699 23.2596 5.66699 17.0003Z" fill="#83CC5E"/>
<path fill-rule="evenodd" clip-rule="evenodd" d="M22.4867 12.1909C23.1867 12.8739 23.2005 13.9951 22.5174 14.695L15.6058 21.7784C15.2726 22.1199 14.8156 22.3125 14.3384 22.3125C13.8612 22.3125 13.4042 22.1199 13.0709 21.7784L10.0659 18.6987C9.38288 17.9987 9.39664 16.8775 10.0966 16.1945C10.7966 15.5115 11.9178 15.5253 12.6008 16.2252L14.3384 18.006L19.9826 12.2216C20.6656 11.5216 21.7867 11.5079 22.4867 12.1909Z" fill="white"/>
</svg>
