<svg width="34" height="34" viewBox="0 0 34 34" fill="none" xmlns="http://www.w3.org/2000/svg">
<path d="M0 17C0 7.61116 7.61116 0 17 0C26.3888 0 34 7.61116 34 17C34 26.3888 26.3888 34 17 34C7.61116 34 0 26.3888 0 17Z" fill="#FC4E55" fill-opacity="0.3"/>
<path d="M2.83301 16.9997C2.83301 9.17564 9.17564 2.83301 16.9997 2.83301C24.8237 2.83301 31.1663 9.17564 31.1663 16.9997C31.1663 24.8237 24.8237 31.1663 16.9997 31.1663C9.17564 31.1663 2.83301 24.8237 2.83301 16.9997Z" fill="#FC4E55" fill-opacity="0.5"/>
<path d="M5.66699 17.0003C5.66699 10.7411 10.7411 5.66699 17.0003 5.66699C23.2596 5.66699 28.3337 10.7411 28.3337 17.0003C28.3337 23.2596 23.2596 28.3337 17.0003 28.3337C10.7411 28.3337 5.66699 23.2596 5.66699 17.0003Z" fill="#FC4E55"/>
<path fill-rule="evenodd" clip-rule="evenodd" d="M23.0205 17.0003C23.0205 17.9783 22.2277 18.7712 21.2497 18.7712H12.0413C11.0633 18.7712 10.2705 17.9783 10.2705 17.0003C10.2705 16.0223 11.0633 15.2295 12.0413 15.2295H21.2497C22.2277 15.2295 23.0205 16.0223 23.0205 17.0003Z" fill="white"/>
</svg>
