<?xml version="1.0" standalone="no"?>
<!DOCTYPE svg PUBLIC "-//W3C//DTD SVG 20010904//EN"
 "http://www.w3.org/TR/2001/REC-SVG-20010904/DTD/svg10.dtd">
<svg version="1.0" xmlns="http://www.w3.org/2000/svg"
 width="25.000000pt" height="25.000000pt" viewBox="0 0 260.000000 260.000000"
 preserveAspectRatio="xMidYMid meet" >

<g transform="translate(0.000000,260.000000) scale(0.100000,-0.100000)"
fill="#000000" stroke="none">
<path fill="red" fill-opacity="0.7" d="M1114 2366 c-236 -45 -436 -154 -599 -327 -128 -135 -214 -289 -263
-469 -23 -85 -26 -113 -26 -270 0 -157 3 -185 27 -273 102 -381 408 -681 797
-780 71 -18 112 -21 255 -21 151 0 181 4 268 27 372 100 674 402 774 774 23
87 27 117 27 268 1 195 -15 277 -81 431 -131 302 -405 538 -721 621 -120 31
-345 40 -458 19z m377 -220 c37 -8 100 -28 141 -45 79 -33 191 -102 189 -117
-1 -5 -272 -280 -603 -612 l-603 -602 -18 22 c-71 91 -132 242 -153 382 -72
471 255 910 733 986 72 11 227 4 314 -14z m583 -461 c66 -132 90 -233 90 -380
0 -140 -18 -231 -66 -343 -171 -394 -604 -609 -1014 -501 -93 24 -184 64 -259
115 l-57 37 608 608 609 609 22 -28 c12 -15 43 -67 67 -117z"/>
</g>
</svg>
