<?xml version="1.0"?>
<svg width="34" height="34" xmlns="http://www.w3.org/2000/svg" xmlns:svg="http://www.w3.org/2000/svg">
 <g class="layer">
  <title>Layer 1</title>
  <path d="m1.67,17c0,-8.47 6.86,-15.33 15.33,-15.33c8.47,0 15.33,6.86 15.33,15.33c0,8.47 -6.86,15.33 -15.33,15.33c-8.47,0 -15.33,-6.86 -15.33,-15.33z" fill="#1CAB02" id="svg_3"/>
  <path clip-rule="evenodd" d="m22.49,12.19c0.7,0.68 0.71,1.81 0.03,2.51l-6.91,7.08c-0.34,0.34 -0.79,0.53 -1.27,0.53c-0.48,0 -0.94,-0.19 -1.27,-0.53l-3,-3.08c-0.69,-0.7 -0.67,-1.82 0.03,-2.51c0.7,-0.68 1.82,-0.66 2.5,0.04l1.74,1.78l5.64,-5.79c0.69,-0.7 1.81,-0.71 2.51,-0.03z" fill="white" fill-rule="evenodd" id="svg_4"/>
 </g>
</svg>